<svg width="169" height="61" viewBox="0 0 169 61" fill="none" xmlns="http://www.w3.org/2000/svg">
<path d="M31.76 11.28H20.48V19.84H31.76V30.48H20.48V59.84H8.32V30.48H0V19.84H8.32V14.24C8.32 10.1867 9.57333 6.90667 12.08 4.4C14.5867 1.89333 17.8667 0.640001 21.92 0.640001H31.76V11.28Z" fill="#011A5F"/>
<path d="M44.15 14.64C41.6967 14.64 39.8033 14 38.47 12.72C37.19 11.44 36.55 9.6 36.55 7.2C36.55 4.90667 37.19 3.14667 38.47 1.92C39.8033 0.640001 41.6967 0 44.15 0C46.6567 0 48.5767 0.640001 49.91 1.92C51.2433 3.14667 51.91 4.90667 51.91 7.2C51.91 9.6 51.2433 11.44 49.91 12.72C48.5767 14 46.6567 14.64 44.15 14.64ZM38.15 59.84V19.84H50.31V59.84H38.15Z" fill="#011A5F"/>
<path d="M85.5281 19.04C94.9148 19.04 99.6081 24.8533 99.6081 36.48V59.84H87.4481V37.2C87.4481 32.4533 85.2081 30.08 80.7281 30.08C75.5015 30.08 72.8881 33.52 72.8881 40.4V59.84H60.7281V19.84H72.8881V28.88C74.8081 22.32 79.0215 19.04 85.5281 19.04Z" fill="#011A5F"/>
<path d="M146.914 39.52C146.914 41.12 146.888 42.5067 146.834 43.68H119.714C120.141 46.08 120.994 47.84 122.274 48.96C123.608 50.0267 125.528 50.56 128.034 50.56C129.954 50.56 131.448 50.2133 132.514 49.52C133.634 48.7733 134.674 47.44 135.634 45.52L146.034 50C143.208 57.0933 137.101 60.64 127.714 60.64C121.528 60.64 116.514 58.7733 112.674 55.04C108.888 51.2533 106.994 46.2933 106.994 40.16C106.994 33.8667 108.861 28.7733 112.594 24.88C116.328 20.9867 121.234 19.04 127.314 19.04C133.181 19.04 137.901 20.9333 141.474 24.72C145.101 28.4533 146.914 33.3867 146.914 39.52ZM132.994 30.4C131.768 29.28 129.954 28.72 127.554 28.72C125.154 28.72 123.314 29.28 122.034 30.4C120.808 31.52 120.008 33.3067 119.634 35.76H134.914C134.861 33.2533 134.221 31.4667 132.994 30.4Z" fill="#011A5F"/>
<path d="M160.632 60.32C158.179 60.32 156.286 59.68 154.952 58.4C153.619 57.0667 152.952 55.1733 152.952 52.72C152.952 50.3733 153.619 48.56 154.952 47.28C156.286 46 158.179 45.36 160.632 45.36C163.139 45.36 165.059 46 166.393 47.28C167.779 48.56 168.473 50.3733 168.473 52.72C168.473 55.1733 167.779 57.0667 166.393 58.4C165.059 59.68 163.139 60.32 160.632 60.32Z" fill="#FA5E6F"/>
</svg>
